#!OML:ASF C:\Vicon Data\Big\jianyuan-13\jianyuan\Session 1\Capture.male.ASF
:FULLY-SPECIFIED
:DEGREES
70
root -8.602148 18.033986 -18.823408 3.708869 11.244766 5.414621
lowerback -3.348028 1.467908 -5.560525 
upperback 3.349316 2.232508 -1.405013 
thorax 5.203673 0.871133 1.819715 
lowerneck -6.634777 -3.947354 2.828229 
upperneck 6.293187 -5.456268 -1.612804 
head 3.056001 -2.709808 -1.267627 
rclavicle 0.000000 0.000000 
rhumerus -31.011389 -14.280028 -82.512006 
rradius 40.258396 
rwrist 23.216764 
rhand -20.141729 -19.923351 
rfingers 0.000000 
rthumb 6.202950 -49.812591 
lclavicle 0.000000 0.000000 
lhumerus -38.877889 39.345738 64.563176 
lradius 23.722117 
lwrist -65.834899 
lhand -18.960861 0.593545 
lfingers 0.000000 
lthumb 7.342925 30.446152 
rfemur -11.817440 4.795181 20.113659 
rtibia 18.796371 
rfoot -13.324070 -9.993522 
rtoes -21.245148 
lfemur -81.274813 10.664604 -27.039677 
ltibia 112.210100 
lfoot -17.067539 -11.673797 
ltoes -38.254947 
71
root -8.595199 18.036844 -18.749661 3.662546 11.008500 5.413918
lowerback -3.375192 1.473487 -5.438212 
upperback 3.321306 2.236128 -1.443266 
thorax 5.194821 0.879367 1.712694 
lowerneck -6.535825 -3.882264 2.941558 
upperneck 6.328249 -5.365655 -1.793364 
head 3.043999 -2.669375 -1.339921 
rclavicle 0.000000 0.000000 
rhumerus -31.161177 -14.126094 -82.690570 
rradius 40.447998 
rwrist 22.987087 
rhand -20.254725 -19.986505 
rfingers 0.000000 
rthumb 6.093876 -49.878895 
lclavicle 0.000000 0.000000 
lhumerus -39.271809 39.901039 63.911623 
lradius 23.581231 
lwrist -66.601339 
lhand -18.993949 0.487119 
lfingers 0.000000 
lthumb 7.310988 30.340851 
rfemur -11.451814 4.663225 20.179061 
rtibia 18.664888 
rfoot -13.365703 -9.665361 
rtoes -21.469920 
lfemur -81.415929 10.629163 -26.964083 
ltibia 112.200670 
lfoot -17.134217 -11.590707 
ltoes -38.637833 
72
root -8.593487 18.042003 -18.673407 3.692987 10.851347 5.506319
lowerback -3.469612 1.425050 -5.481097 
upperback 3.296810 2.181016 -1.480395 
thorax 5.226969 0.850524 1.696442 
lowerneck -6.548605 -3.773870 2.837801 
upperneck 6.401052 -5.214313 -1.766182 
head 3.078781 -2.595548 -1.309063 
rclavicle 0.000000 0.000000 
rhumerus -31.244835 -13.820118 -82.928376 
rradius 40.627876 
rwrist 22.199241 
rhand -20.474592 -19.983911 
rfingers 0.000000 
rthumb 5.881610 -49.882243 
lclavicle 0.000000 0.000000 
lhumerus -39.671719 40.479946 63.310446 
lradius 23.505148 
lwrist -67.204939 
lhand -19.427714 0.635707 
lfingers 0.000000 
lthumb 6.892249 30.503503 
rfemur -11.161291 4.602486 20.143965 
rtibia 18.588646 
rfoot -13.478090 -9.453891 
rtoes -21.598720 
lfemur -81.390653 10.423046 -26.886485 
ltibia 112.048862 
lfoot -16.984376 -11.573905 
ltoes -38.206134 
73
root -8.590731 18.042449 -18.601470 3.741845 10.667889 5.583323
lowerback -3.567864 1.394617 -5.507217 
upperback 3.253079 2.149491 -1.512159 
thorax 5.239787 0.835259 1.677984 
lowerneck -6.531148 -3.697752 2.691792 
upperneck 6.477900 -5.108067 -1.654832 
head 3.110914 -2.542069 -1.244377 
rclavicle 0.000000 0.000000 
rhumerus -31.424936 -13.818750 -82.997344 
rradius 40.738437 
rwrist 22.512770 
rhand -20.148208 -19.928636 
rfingers 0.000000 
rthumb 6.196736 -49.817965 
lclavicle 0.000000 0.000000 
lhumerus -39.840959 40.737975 63.008702 
lradius 23.417206 
lwrist -67.293176 
lhand -19.299240 0.549817 
lfingers 0.000000 
lthumb 7.016303 30.413551 
rfemur -11.025951 4.524505 20.114433 
rtibia 18.691213 
rfoot -13.550247 -9.181897 
rtoes -21.939906 
lfemur -81.347726 10.323452 -26.842543 
ltibia 111.856595 
lfoot -16.934369 -11.402648 
ltoes -38.414087 
74
root -8.586087 18.041830 -18.525983 3.733656 10.482845 5.653310
lowerback -3.650145 1.392283 -5.488831 
upperback 3.243511 2.152083 -1.534292 
thorax 5.278039 0.836832 1.647161 
lowerneck -6.505424 -3.609755 2.674288 
upperneck 6.512738 -4.988809 -1.656874 
head 3.121377 -2.483495 -1.237021 
rclavicle 0.000000 0.000000 
rhumerus -31.585066 -14.233195 -82.893786 
rradius 40.761067 
rwrist 22.880966 
rhand -20.091620 -19.740978 
rfingers 0.000000 
rthumb 6.251381 -49.628753 
lclavicle 0.000000 0.000000 
lhumerus -40.067372 41.109272 62.716672 
lradius 23.444675 
lwrist -67.802555 
lhand -19.544106 0.813744 
lfingers 0.000000 
lthumb 6.779890 30.685192 
rfemur -10.849241 4.542904 20.094398 
rtibia 18.873203 
rfoot -13.761875 -8.971616 
rtoes -22.089382 
lfemur -80.995239 10.227818 -26.798136 
ltibia 111.523267 
lfoot -17.035296 -11.115445 
ltoes -38.671317 
